<?xml version="1.0" encoding="UTF-8" standalone="no"?>
<!-- Created with Inkscape (http://www.inkscape.org/) -->

<svg
   width="100mm"
   height="100mm"
   viewBox="0 0 100 100"
   version="1.1"
   id="svg1"
   inkscape:version="1.4.2 (f4327f4, 2025-05-13)"
   sodipodi:docname="app-icon.svg"
   xmlns:inkscape="http://www.inkscape.org/namespaces/inkscape"
   xmlns:sodipodi="http://sodipodi.sourceforge.net/DTD/sodipodi-0.dtd"
   xmlns="http://www.w3.org/2000/svg"
   xmlns:svg="http://www.w3.org/2000/svg">
  <sodipodi:namedview
     id="namedview1"
     pagecolor="#ffffff"
     bordercolor="#000000"
     borderopacity="0.25"
     inkscape:showpageshadow="2"
     inkscape:pageopacity="0.0"
     inkscape:pagecheckerboard="0"
     inkscape:deskcolor="#d1d1d1"
     inkscape:document-units="mm"
     inkscape:zoom="1.4142136"
     inkscape:cx="205.06096"
     inkscape:cy="167.23075"
     inkscape:window-width="1920"
     inkscape:window-height="986"
     inkscape:window-x="-11"
     inkscape:window-y="-11"
     inkscape:window-maximized="1"
     inkscape:current-layer="layer1"
     showgrid="false" />
  <defs
     id="defs1">
    <rect
       x="-111.72287"
       y="-40.305085"
       width="570.63516"
       height="444.77015"
       id="rect5" />
    <rect
       x="-145.32547"
       y="109.39044"
       width="137.39862"
       height="126.8295"
       id="rect4" />
    <rect
       x="-137.92708"
       y="116.26037"
       width="365.69173"
       height="256.30128"
       id="rect3" />
    <rect
       x="109.1131"
       y="345.2757"
       width="336.3075"
       height="372.1803"
       id="rect1" />
    <rect
       x="-137.92708"
       y="116.26037"
       width="365.69174"
       height="256.30127"
       id="rect3-7" />
    <rect
       x="-137.92708"
       y="116.26037"
       width="365.69174"
       height="256.30127"
       id="rect3-2" />
    <rect
       x="-137.92708"
       y="116.26037"
       width="365.69174"
       height="256.30127"
       id="rect3-72" />
    <rect
       x="-137.92708"
       y="116.26037"
       width="365.69174"
       height="256.30127"
       id="rect3-1" />
    <rect
       x="-137.92708"
       y="116.26037"
       width="365.69174"
       height="256.30127"
       id="rect3-0" />
    <rect
       x="-137.92708"
       y="116.26037"
       width="449.69174"
       height="365.30127"
       id="rect3-2-3" />
    <rect
       x="-137.92708"
       y="116.26037"
       width="365.69174"
       height="256.30127"
       id="rect3-2-7" />
  </defs>
  <g
     inkscape:label="Layer 1"
     inkscape:groupmode="layer"
     id="layer1">
    <rect
       style="fill:#00ffff;stroke-width:0.269982"
       id="rect2-5"
       width="100"
       height="100"
       x="0"
       y="0"
       ry="21.428572"
       rx="26.020409" />
    <rect
       style="fill:#000000;stroke-width:0.237584"
       id="rect2"
       width="88"
       height="88"
       x="6"
       y="6"
       ry="18.857143"
       rx="22.897959" />
    <path
       style="font-size:221.333px;font-family:'Trebuchet MS';-inkscape-font-specification:'Trebuchet MS';white-space:pre;fill:#00ffff"
       d="m -25.856292,282.79987 h -83.432168 q 0,20.31768 11.131498,31.23303 9.83462,9.5104 25.289023,9.5104 17.615859,0 29.395788,-10.26691 l 8.64582,14.80597 q -4.755201,4.7552 -14.589821,8.21353 -12.320293,4.53905 -27.450478,4.53905 -21.830696,0 -37.06895,-14.80597 -16.96743,-16.31898 -16.96743,-43.87753 0,-28.63928 17.39972,-45.93092 15.562473,-15.4544 36.852805,-15.4544 24.74866,0 38.798117,13.94138 13.617167,13.40102 13.617167,35.55593 0,6.80859 -1.621091,12.53644 z M -75.67783,238.05776 q -13.72524,0 -23.019496,8.86196 -8.861964,8.42968 -10.050764,20.96611 h 64.087139 q 0,-12.42836 -7.781238,-20.74996 -8.537747,-9.07811 -23.235641,-9.07811 z M 29.044665,338.67349 H 5.0525144 q 7.9973836,-25.3971 26.9101146,-67.11318 18.912732,-41.82416 34.58328,-71.32802 H -8.1323611 V 179.69847 H 94.536752 v 8.42967 l -13.941385,27.45048 q -7.024729,13.94139 -14.697894,30.58459 -7.673165,16.6432 -15.022112,33.93485 -7.348947,17.29164 -12.860658,32.0976 -5.51171,14.80597 -8.970038,26.47783 z"
       id="text2-0-6"
       transform="matrix(0.26458333,0,0,0.26458333,54.140414,-20.073594)"
       aria-label="e7" />
  </g>
</svg>
